<svg width="64" height="80" viewBox="0 0 64 80" fill="none" xmlns="http://www.w3.org/2000/svg">
<path fill-rule="evenodd" clip-rule="evenodd" d="M31.5743 0C49.0116 0.000362278 63.1472 14.1369 63.1472 31.5743C63.147 39.6508 60.1124 47.0172 55.1237 52.6005L37.2505 77.0688C34.3868 80.9875 28.5338 80.975 25.6873 77.0436L7.8447 52.4009C2.96204 46.8422 0.000165802 39.5543 0 31.5743C0 14.1369 14.137 0.000351355 31.5743 0ZM32.0602 16.7311C24.1314 16.7311 17.7043 23.1595 17.7043 31.0884C17.7047 39.0168 24.1316 45.4442 32.0602 45.4442C39.9887 45.4441 46.4157 39.0168 46.4161 31.0884C46.4161 23.1596 39.9889 16.7312 32.0602 16.7311Z" fill="#333333"/>
</svg>
